<?xml version="1.0" encoding="iso-8859-1"?>
<!-- Generator: Adobe Illustrator 19.0.0, SVG Export Plug-In . SVG Version: 6.00 Build 0)  -->
<svg version="1.1" id="Capa_1" xmlns="http://www.w3.org/2000/svg" xmlns:xlink="http://www.w3.org/1999/xlink" x="0px" y="0px"
	 viewBox="0 0 511.996 511.996" style="enable-background:new 0 0 511.996 511.996;" xml:space="preserve">
<g>
	<g>
		<g>
			<path d="M472.977,74.347c-24.69-24.69-58.199-38.799-93.471-38.799s-68.78,14.109-93.471,38.799
				c-13.227,13.227-22.927,29.099-29.981,45.854c-6.173-16.754-16.754-32.627-29.981-45.854
				c-24.69-24.69-58.199-38.799-93.471-38.799s-68.78,14.109-93.471,38.799c-52.026,52.026-52.026,136.679-0.882,188.705
				l210.75,210.75c1.764,1.764,3.527,2.645,6.173,2.645c2.645,0,4.409-0.882,6.173-2.645l211.632-211.632
				C525.003,210.145,525.003,126.373,472.977,74.347z M460.631,248.944l-205.46,206.341L50.594,249.826
				C5.622,204.854,6.504,131.664,51.476,86.692c22.045-21.163,51.144-33.508,81.126-33.508c29.981,0,59.081,12.345,81.126,33.508
				c22.045,22.045,33.508,50.263,33.508,81.126c0,5.291,3.527,8.818,8.818,8.818c5.291,0,8.818-3.527,8.818-8.818
				c0-30.863,12.345-59.962,33.508-81.126c22.045-21.163,51.144-33.508,81.126-33.508c29.981,0,59.081,12.345,81.126,33.508
				C505.603,131.664,505.603,204.854,460.631,248.944z"/>
			<path d="M132.601,70.82c-52.908,0-96.998,44.09-96.998,96.998c0,5.291,3.527,8.818,8.818,8.818c5.291,0,8.818-3.527,8.818-8.818
				c0-44.09,35.272-79.362,79.362-79.362c5.291,0,8.818-3.527,8.818-8.818S137.892,70.82,132.601,70.82z"/>
			<path d="M332.77,285.979c-3.527-3.527-8.818-3.527-12.345,0l-70.544,70.544c-3.527,3.527-3.527,8.818,0,12.345
				c1.764,1.764,4.409,2.645,6.173,2.645c2.645,0,4.409-0.882,6.173-2.645l70.544-70.544
				C336.297,294.797,336.297,288.625,332.77,285.979z"/>
			<path d="M256.054,336.242c2.645,0,4.409-0.882,6.173-2.645l35.272-35.272c3.527-3.527,3.527-8.818,0-12.345
				s-8.818-3.527-12.345,0l-35.272,35.272c-3.527,3.527-3.527,8.818,0,12.345C251.645,335.36,254.29,336.242,256.054,336.242z"/>
			<path d="M320.425,321.251l-35.272,35.272c-3.527,3.527-3.527,8.818,0,12.345c1.764,1.764,4.409,2.645,6.173,2.645
				c2.645,0,4.409-0.882,6.173-2.645l35.272-35.272c3.527-3.527,3.527-8.818,0-12.345
				C330.125,317.724,323.952,317.724,320.425,321.251z"/>
			<path d="M379.506,71.702c-5.291,0-8.818,3.527-8.818,8.818c0,5.291,3.527,8.818,8.818,8.818c43.208,0,78.48,35.272,78.48,78.48
				c0,5.291,3.527,8.818,8.818,8.818c5.291,0,8.818-3.527,8.818-8.818C475.622,114.91,432.414,71.702,379.506,71.702z"/>
		</g>
	</g>
</g>
<g>
</g>
<g>
</g>
<g>
</g>
<g>
</g>
<g>
</g>
<g>
</g>
<g>
</g>
<g>
</g>
<g>
</g>
<g>
</g>
<g>
</g>
<g>
</g>
<g>
</g>
<g>
</g>
<g>
</g>
</svg>
